<?xml version="1.0" encoding="utf-8"?>
<!-- Svg Vector Icons : http://www.onlinewebfonts.com/icon -->
<!DOCTYPE svg PUBLIC "-//W3C//DTD SVG 1.1//EN" "http://www.w3.org/Graphics/SVG/1.1/DTD/svg11.dtd">
<svg version="1.1" xmlns="http://www.w3.org/2000/svg" xmlns:xlink="http://www.w3.org/1999/xlink" x="0px" y="0px" viewBox="0 0 256 256" enable-background="new 0 0 256 256" xml:space="preserve">
<metadata> Svg Vector Icons : http://www.onlinewebfonts.com/icon </metadata>
<g><g><path fill="#000000" d="M214.4,10H38.7C30.6,10,24,16.6,24,24.6v205c0,8.1,6.6,14.6,14.6,14.6h101.3c-11.2-11.3-18.3-26.8-18.5-43.9H60.6c-4,0-7.3-3.3-7.3-7.3c0-4,3.3-7.3,7.3-7.3h62.3c2.5-11.1,7.9-21.2,15.3-29.3H60.6c-4,0-7.3-3.3-7.3-7.3c0-4,3.3-7.3,7.3-7.3h97.6c8.1-3.8,17.1-5.9,26.7-5.9c17.1,0,32.7,6.8,44.1,17.8V24.6C229,16.6,222.4,10,214.4,10L214.4,10z M53.3,105.2c0-4.1,2.3-7.3,5.2-7.3h93.6c2.9,0,5.2,3.3,5.2,7.3s-2.3,7.3-5.2,7.3H58.5C55.6,112.5,53.3,109.2,53.3,105.2L53.3,105.2z M68,39.2c8.1,0,14.6,6.6,14.6,14.6c0,8.1-6.6,14.6-14.6,14.6s-14.6-6.6-14.6-14.6C53.3,45.7,59.8,39.2,68,39.2L68,39.2z M185.1,68.4c-8.1,0-14.6-6.6-14.6-14.6s6.5-14.6,14.6-14.6s14.6,6.6,14.6,14.6C199.7,61.9,193.2,68.4,185.1,68.4L185.1,68.4z M127.2,39.2c8.1,0,14.6,6.6,14.6,14.6c0,8.1-6.6,14.6-14.6,14.6c-8.1,0-14.6-6.6-14.6-14.6C112.5,45.7,119.1,39.2,127.2,39.2z"/><path fill="#000000" d="M217.9,164.1c-8.7-8.7-20.7-14-33.9-14c-13.2,0-25.2,5.4-33.9,14c-8.7,8.7-14,20.7-14,33.9c0,13.2,5.4,25.2,14,33.9c8.7,8.7,20.7,14,33.9,14c13.2,0,25.2-5.4,33.9-14c8.7-8.7,14.1-20.7,14.1-33.9C232,184.8,226.6,172.8,217.9,164.1L217.9,164.1z M157.6,199.6c-2.9-4.2-1.9-9.9,2.3-12.8c4.2-2.9,9.9-1.9,12.8,2.3l6,8.6l17-20.3c3.3-3.9,9.1-4.4,13-1.2c3.9,3.3,4.4,9.1,1.2,13l-24.5,29.3c-0.6,0.7-1.3,1.4-2,2c-4.2,2.9-9.9,1.9-12.8-2.3L157.6,199.6z"/></g></g>
</svg>